<?xml version="1.0"?>
<svg xmlns:rdf="http://www.w3.org/1999/02/22-rdf-syntax-ns#" xmlns="http://www.w3.org/2000/svg" xmlns:cc="http://creativecommons.org/ns#" xmlns:xlink="http://www.w3.org/1999/xlink" xmlns:dc="http://purl.org/dc/elements/1.1/" xmlns:svg="http://www.w3.org/2000/svg" id="Layer_1" y="0px" xml:space="preserve" viewBox="0 0 350.982 245.988" version="1.0" enable-background="new 0 0 350.982 245.988" x="0px">
<path id="path9" stroke="#000" stroke-width=".6" d="m316.98 102c-4.107 4.551-6.846 8.406-26.16 8.406l-233.73-0.09c-2.188 0-9.566-0.084-12.466-0.699-7.021-1.492-5.099-7.213-5.099-18.266h277.45v10.649z"/><circle id="circle11" stroke-width=".75" cy="108.78" stroke="#fff" cx="254.15" r="14.851"/><path id="path13" stroke="#000" fill="#fff" d="m93.034 32.402c-6.884 0-5.939 10.375-5.939 10.375-1.812 2.663-15.61 24.92-17.65 27.639 0 0-35.398 5.236-35.398 12.959v18.176c4.883 4.881 5.931 5.891 8.424 6.119 2.492 0.227 8.154 0.34 11.102 0.34l26.399 0.113h37.68l3.75-6.221h116.5c2.833-6.16 9.025-10.663 16.25-10.663 7.25 0 13.494 4.466 16.312 10.663h52.104v-53.367c0-12.154-5.5-16.119-15-16.119l-214.53-0.012z"/><circle id="circle15" stroke-width=".75" cy="108.78" stroke="#000" cx="254.15" r="8.338" fill="#f1f2f2"/><path id="path17" stroke="#000" fill="#fff" d="m42.794 103.14c0 1.502-0.422 3.174-1.922 3.174h-10.209c-1.5 0-1.922-1.672-1.922-3.174v-2.266c0-1.502 0.422-3.174 1.922-3.174h10.209c1.5 0 1.922 1.672 1.922 3.174v2.266z"/><path id="path19" stroke="#000" fill="#fff" d="m325.43 103.14c0 1.502-0.422 3.174-1.922 3.174h-13.209c-1.5 0-1.922-1.672-1.922-3.174v-2.266c0-1.502 0.422-3.174 1.922-3.174h13.209c1.5 0 1.922 1.672 1.922 3.174v2.266z"/><path id="path21" stroke-linejoin="round" d="m112.03 64.166c1.502 0 2.719-1.219 2.719-2.721v-15.947c0-1.502-1.217-2.721-2.719-2.721h-24.935l-17.65 27.639c0.001 0 13.623-2.18 13.623-2.18l28.964-4.07z" stroke="#000" stroke-linecap="round" fill="#fff"/><line id="line23" y2="68.236" x2="83.067" stroke="#000" y1="42.777" x1="88.502" fill="none"/><path id="path25" d="m34.296 83.974h4.784c0.663 0 1.487 0.511 1.2 1.199l-3.1 8.701c-0.28 0.777-0.538 1.199-1.201 1.199h-1.684" stroke="#000" stroke-linecap="round" stroke-width=".75" fill="#fff"/><path id="path27" d="m91.788 71.39c0 1.105-0.145 2-1.25 2h-1.25c-1.104 0-1.5-0.895-1.5-2v-12.5c0-1.104 0.396-2 1.5-2h1.25c1.105 0 1.25 0.896 1.25 2v12.5z" stroke="#000" stroke-width=".75" fill="#fff"/><path id="path29" stroke="#000" stroke-width=".75" d="m44.297 108.28c0-11.236 6.333-17.902 16.396-17.902 15.351 0 17.021 12.778 19.521 17.681"/><circle id="circle31" stroke-width=".75" cy="108.78" stroke="#fff" cx="61.193" r="14.851"/><circle id="circle33" stroke-width=".75" cy="108.78" stroke="#000" cx="61.194" r="8.337" fill="#f1f2f2"/><path id="path35" d="m67.319 80.652c0 1.522-1.234 1.256-2.756 1.256h-7.201c-1.522 0-2.756 0.267-2.756-1.256v-1.25c0-1.522 1.138-1.844 2.756-2.006l7.201-1c1.618-0.182 2.756-0.267 2.756 1.256v3z" stroke="#000" stroke-width=".75" fill="#fff"/><path id="path37" stroke="#000" fill="none" d="m84.538 108s-0.967-6.152-2.115-10.125c-2.689-9.303-10.023-12.915-17.392-12.915h-11.131c-6.5 0-12.833 4.694-12.833 12.694"/><path id="path39" stroke="#000" fill="#fff" d="m139.78 61.902c0 1.104-0.896 2-2 2h-17.25c-1.104 0-2-0.896-2-2v-17.25c0-1.104 0.896-2 2-2h17.25c1.104 0 2 0.896 2 2v17.25z"/><path id="path41" stroke="#000" fill="#fff" d="m164.52 61.902c0 1.104-0.896 2-2 2h-17.25c-1.104 0-2-0.896-2-2v-17.25c0-1.104 0.896-2 2-2h17.25c1.104 0 2 0.896 2 2v17.25z"/><path id="path43" stroke="#000" fill="#fff" d="m189.28 61.902c0 1.104-0.896 2-2 2h-17.25c-1.104 0-2-0.896-2-2v-17.25c0-1.104 0.896-2 2-2h17.25c1.104 0 2 0.896 2 2v17.25z"/><path id="path45" stroke="#000" fill="#fff" d="m214.02 61.902c0 1.104-0.896 2-2 2h-17.25c-1.104 0-2-0.896-2-2v-17.25c0-1.104 0.896-2 2-2h17.25c1.104 0 2 0.896 2 2v17.25z"/><path id="path47" stroke="#000" fill="#fff" d="m238.78 61.902c0 1.104-0.896 2-2 2h-17.25c-1.104 0-2-0.896-2-2v-17.25c0-1.104 0.896-2 2-2h17.25c1.104 0 2 0.896 2 2v17.25z"/><path id="path49" stroke="#000" fill="#fff" d="m263.52 61.902c0 1.104-0.896 2-2 2h-17.25c-1.104 0-2-0.896-2-2v-17.25c0-1.104 0.896-2 2-2h17.25c1.104 0 2 0.896 2 2v17.25z"/><path id="path51" stroke="#000" fill="#fff" d="m288.28 61.902c0 1.104-0.896 2-2 2h-17.25c-1.104 0-2-0.896-2-2v-17.25c0-1.104 0.896-2 2-2h17.25c1.104 0 2 0.896 2 2v17.25z"/><path id="path53" stroke="#000" fill="#fff" d="m312.94 61.902c0 1.104-0.896 2-2 2h-17.25c-1.104 0-2-0.896-2-2v-17.25c0-1.104 0.896-2 2-2h17.25c1.104 0 2 0.896 2 2v17.25z"/><line id="line55" y2="89.402" x2="312.71" stroke="#000" y1="89.402" x1="85.4" fill="#fff"/><line id="line57" y2="66.902" x2="312.73" stroke="#000" y1="66.902" x1="117.73" fill="#fff"/><line id="line59" y2="78.152" x2="312.73" stroke="#000" y1="78.152" x1="117.73" fill="#fff"/><path id="path61" stroke="#000" stroke-width=".6" d="m37.324 205.52c4.107 4.551 6.846 8.406 26.16 8.406l241.11-0.09c-7.445 0 2.187-0.084 5.086-0.699 7.021-1.492 5.099-7.488 5.099-18.266h-277.46v10.649z"/><circle id="circle63" stroke-width=".75" cy="212.31" stroke="#fff" cx="100.15" r="14.851"/><path id="path65" stroke="#000" fill="#fff" d="m261.27 135.93c6.884 0 5.939 10.375 5.939 10.375 1.812 2.662 15.475 24.7 17.515 27.419 0 0 35.534 5.456 35.534 13.179v18.176c-4.883 4.881-5.931 5.891-8.424 6.119-2.492 0.227-8.154 0.34-11.102 0.34l-26.399 0.113h-37.68l-3.75-6.221h-116.5c-2.833-6.16-9.025-10.663-16.25-10.663-7.25 0-13.494 4.466-16.312 10.663h-52.105v-53.369c0-12.154 5.5-16.119 15-16.119l214.53-0.012z"/><circle id="circle67" stroke-width=".75" cy="212.31" stroke="#000" cx="100.15" r="8.338" fill="#fff"/><path id="path69" stroke="#000" fill="#fff" d="m311.51 206.66c0 1.502 0.422 3.174 1.922 3.174h10.209c1.5 0 1.922-1.672 1.922-3.174v-2.266c0-1.502-0.422-3.174-1.922-3.174h-10.209c-1.5 0-1.922 1.672-1.922 3.174v2.266z"/><path id="path71" stroke="#000" fill="#fff" d="m28.874 206.66c0 1.502 0.422 3.174 1.922 3.174h13.209c1.5 0 1.922-1.672 1.922-3.174v-2.266c0-1.502-0.422-3.174-1.922-3.174h-13.209c-1.5 0-1.922 1.672-1.922 3.174v2.266z"/><path id="path73" stroke-linejoin="round" d="m239.55 211.93v-62.904c0-1.502 1.217-2.721 2.719-2.721h23.53l5.436 25.459v25.916c-2.084 2.25-3.584 14.25-3.584 14.25h-28.11z" stroke="#000" stroke-linecap="round" fill="#fff"/><path id="path75" d="m320 187.5h-4.784c-0.663 0-1.486 0.511-1.2 1.199l3.1 8.701c0.28 0.777 0.538 1.199 1.201 1.199h1.684" stroke="#000" stroke-linecap="round" stroke-width=".75" fill="#fff"/><path id="path77" stroke="#000" d="m310 211.81c0-11.236-6.333-17.902-16.396-17.902-15.351 0-17.021 12.778-19.521 17.681"/><circle id="circle79" stroke-width=".75" cy="212.31" stroke="#fff" cx="293.11" r="14.851"/><circle id="circle81" stroke-width=".75" cy="212.31" stroke="#000" cx="293.11" r="8.337" fill="#fff"/><path id="path83" d="m286.98 184.18c0 1.522 1.234 1.256 2.756 1.256h7.201c1.522 0 2.756 0.267 2.756-1.256v-1.25c0-1.522-1.138-1.844-2.756-2.006l-7.201-1c-1.618-0.182-2.756-0.267-2.756 1.256v3z" stroke="#000" stroke-width=".75" fill="#fff"/><path id="path85" stroke="#000" fill="none" d="m269.76 211.53s0.968-6.152 2.115-10.125c2.688-9.305 10.022-12.916 17.392-12.916h11.131c6.5 0 12.834 4.694 12.834 12.694"/><path id="path87" stroke="#000" fill="#fff" d="m214.52 165.43c0 1.104 0.896 2 2 2h17.25c1.104 0 2-0.896 2-2v-17.25c0-1.104-0.896-2-2-2h-17.25c-1.104 0-2 0.896-2 2v17.25z"/><path id="path89" stroke="#000" fill="#fff" d="m189.78 165.43c0 1.104 0.896 2 2 2h17.25c1.104 0 2-0.896 2-2v-17.25c0-1.104-0.896-2-2-2h-17.25c-1.104 0-2 0.896-2 2v17.25z"/><path id="path91" stroke="#000" fill="#fff" d="m165.02 165.43c0 1.104 0.896 2 2 2h17.25c1.104 0 2-0.896 2-2v-17.25c0-1.104-0.896-2-2-2h-17.25c-1.104 0-2 0.896-2 2v17.25z"/><path id="path93" stroke="#000" fill="#fff" d="m140.28 165.43c0 1.104 0.896 2 2 2h17.25c1.104 0 2-0.896 2-2v-17.25c0-1.104-0.896-2-2-2h-17.25c-1.104 0-2 0.896-2 2v17.25z"/><path id="path95" stroke="#000" fill="#fff" d="m115.52 165.43c0 1.104 0.896 2 2 2h17.25c1.104 0 2-0.896 2-2v-17.25c0-1.104-0.896-2-2-2h-17.25c-1.104 0-2 0.896-2 2v17.25z"/><path id="path97" stroke="#000" fill="#fff" d="m90.775 165.43c0 1.104 0.896 2 2 2h17.25c1.104 0 2-0.896 2-2v-17.25c0-1.104-0.896-2-2-2h-17.25c-1.104 0-2 0.896-2 2v17.25z"/><path id="path99" stroke="#000" fill="#fff" d="m66.025 165.43c0 1.104 0.896 2 2 2h17.25c1.104 0 2-0.896 2-2v-17.25c0-1.104-0.896-2-2-2h-17.25c-1.104 0-2 0.896-2 2v17.25z"/><path id="path101" stroke="#000" fill="#fff" d="m41.358 165.43c0 1.104 0.896 2 2 2h17.25c1.104 0 2-0.896 2-2v-17.25c0-1.104-0.896-2-2-2h-17.25c-1.104 0-2 0.896-2 2v17.25z"/><line id="line103" y2="192.93" x2="41.65" stroke="#000" y1="192.93" x1="236.4" fill="#fff"/><line id="line105" y2="170.43" x2="41.567" stroke="#000" y1="170.43" x1="236.57" fill="#fff"/><line id="line107" y2="181.68" x2="41.567" stroke="#000" y1="181.68" x1="236.57" fill="#fff"/><line id="line109" stroke-linejoin="round" y2="211.96" x2="254.15" stroke="#000" stroke-linecap="round" y1="146.43" x1="254.15" fill="#fff"/><path id="path111" stroke="#000" fill="#fff" d="m251.9 173.93c0 1.104-0.896 2-2 2h-6c-1.104 0-2-0.896-2-2v-23.25c0-1.104 0.896-2 2-2h6c1.104 0 2 0.896 2 2v23.25z"/><path id="path113" stroke="#000" fill="#fff" d="m251.9 204.3c0 1.104-0.896 2-2 2h-6c-1.104 0-2-0.896-2-2v-23.25c0-1.104 0.896-2 2-2h6c1.104 0 2 0.896 2 2v23.25z"/><path id="path115" stroke="#000" fill="#fff" d="m266.4 204.3c0 1.104-0.896 2-2 2h-6c-1.104 0-2-0.896-2-2v-23.25c0-1.104 0.896-2 2-2h6c1.104 0 2 0.896 2 2v23.25z"/><path id="path117" stroke="#000" fill="#fff" d="m266.15 173.93c0 1.104-0.896 2-2 2h-6c-1.104 0-2-0.896-2-2v-23.25c0-1.104 0.896-2 2-2h4.25c1.104 0 2 0.896 2 2l1.75 23.25z"/><line id="line119" y2="38.237" x2="313.73" stroke="#000" y1="38.237" x1="89.4" fill="none"/><line id="line121" y2="141.51" x2="264.57" stroke="#000" y1="141.51" x1="40.234" fill="#fff"/><polygon id="polygon123" stroke-linejoin="round" stroke-linecap="round" stroke="#000" points="271.23 171.76 284.72 173.72 267.07 146.33 265.8 146.33" fill="#fff"/><path id="path2985" d="m108.95 86.914-7.5428 0.0114-5.3417-5.3249-0.0114-7.5428 5.3249-5.3417 7.5428-0.0114 5.3417 5.3249 0.0114 7.5428-5.3249 5.3417z" connector-curvature="0" stroke="#000" stroke-width=".48307" fill="#fff"/><path id="path3837" d="m108.37 70.04-6.4362 0.0094-4.5443 4.5591 0.01073 6.4335 4.5584 4.5443 6.4342-0.008 4.543-4.5597-0.008-6.4349-4.5577-4.5436z" connector-curvature="0" stroke="#000" fill="#fff"/><path id="path131" d="m98.313 78.994c0.249 0.146 0.638 0.274 1.039 0.274 0.498 0 0.778-0.236 0.778-0.587 0-0.325-0.217-0.516-0.759-0.713-0.713-0.255-1.167-0.632-1.167-1.25 0-0.708 0.586-1.236 1.524-1.236 0.465 0 0.803 0.101 1.027 0.216l-0.185 0.631c-0.16-0.083-0.459-0.204-0.861-0.204-0.498 0-0.708 0.261-0.708 0.517 0 0.332 0.249 0.484 0.822 0.707 0.746 0.281 1.103 0.657 1.103 1.275 0 0.695-0.523 1.295-1.625 1.295-0.459 0-0.931-0.128-1.167-0.275l0.179-0.65z"/><path id="path133" d="m102.46 76.208h-1.224v-0.657h3.245v0.657h-1.237v3.641h-0.784v-3.641z"/><path id="path135" d="m108.62 77.655c0 1.441-0.874 2.264-2.053 2.264-1.218 0-1.983-0.931-1.983-2.187 0-1.327 0.835-2.258 2.047-2.258 1.249 0 1.989 0.95 1.989 2.181zm-3.207 0.058c0 0.879 0.439 1.574 1.192 1.574 0.759 0 1.186-0.708 1.186-1.607 0-0.809-0.401-1.574-1.186-1.574-0.777 0-1.192 0.72-1.192 1.607z"/><path id="path137" d="m109.29 75.609c0.287-0.051 0.676-0.09 1.199-0.09 0.573 0 0.988 0.122 1.262 0.351 0.255 0.21 0.421 0.548 0.421 0.95 0 0.408-0.127 0.739-0.364 0.969-0.318 0.312-0.803 0.465-1.358 0.465-0.146 0-0.274-0.007-0.382-0.032v1.625h-0.778v-4.238zm0.778 1.995c0.102 0.032 0.223 0.038 0.382 0.038 0.587 0 0.944-0.293 0.944-0.791 0-0.478-0.332-0.727-0.874-0.727-0.217 0-0.37 0.02-0.452 0.039v1.441z"/>
<metadata><rdf:RDF><cc:Work><dc:format>image/svg+xml</dc:format><dc:type rdf:resource="http://purl.org/dc/dcmitype/StillImage"/><cc:license rdf:resource="http://creativecommons.org/licenses/publicdomain/"/><dc:publisher><cc:Agent rdf:about="http://openclipart.org/"><dc:title>Openclipart</dc:title></cc:Agent></dc:publisher><dc:title>Deux bus scolaires noirs</dc:title><dc:date>2011-10-24T09:06:40</dc:date><dc:description>bus, clip art, clipart, enfant, noir, school, scolaire, &#xE9;cole, </dc:description><dc:source>http://openclipart.org/detail/164581/deux-bus-scolaires-noirs-by-cyrille</dc:source><dc:creator><cc:Agent><dc:title>cyrille</dc:title></cc:Agent></dc:creator><dc:subject><rdf:Bag><rdf:li>bus</rdf:li><rdf:li>clip art</rdf:li><rdf:li>clipart</rdf:li><rdf:li>enfant</rdf:li><rdf:li>noir</rdf:li><rdf:li>school</rdf:li><rdf:li>scolaire</rdf:li><rdf:li>&#xE9;cole</rdf:li></rdf:Bag></dc:subject></cc:Work><cc:License rdf:about="http://creativecommons.org/licenses/publicdomain/"><cc:permits rdf:resource="http://creativecommons.org/ns#Reproduction"/><cc:permits rdf:resource="http://creativecommons.org/ns#Distribution"/><cc:permits rdf:resource="http://creativecommons.org/ns#DerivativeWorks"/></cc:License></rdf:RDF></metadata></svg>
